<?xml version="1.0" encoding="UTF-8" standalone="no"?>
<!-- Created with Inkscape (http://www.inkscape.org/) -->

<svg
   version="1.1"
   id="svg1"
   width="512"
   height="512"
   viewBox="0 0 512 512"
   sodipodi:docname="settings.png"
   xml:space="preserve"
   inkscape:version="0.0.2 (ebf0e940d0, 2025-05-08)"
   inkscape:export-filename="settings.svg"
   inkscape:export-xdpi="6"
   inkscape:export-ydpi="6"
   xmlns:inkscape="http://www.inkscape.org/namespaces/inkscape"
   xmlns:sodipodi="http://sodipodi.sourceforge.net/DTD/sodipodi-0.dtd"
   xmlns="http://www.w3.org/2000/svg"
   xmlns:svg="http://www.w3.org/2000/svg"><defs
     id="defs1"><inkscape:path-effect
       effect="fillet_chamfer"
       id="path-effect2"
       is_visible="true"
       lpeversion="1"
       nodesatellites_param="F,0,0,1,0,0,0,1 @ F,0,0,1,0,0,0,1 @ F,0,0,1,0,0,0,1 @ F,0,0,1,0,0,0,1 @ F,0,0,1,0,0,0,1 @ F,0,0,1,0,0,0,1 @ F,0,0,1,0,0,0,1 @ F,0,0,1,0,0,0,1 @ F,0,0,1,0,0,0,1 @ F,0,0,1,0,0,0,1 @ F,0,0,1,0,0,0,1 @ F,0,0,1,0,0,0,1 @ F,0,0,1,0,0,0,1 @ F,0,0,1,0,0,0,1 @ F,0,0,1,0,0,0,1 @ F,0,0,1,0,0,0,1 @ F,0,0,1,0,0,0,1 @ F,0,0,1,0,0,0,1 @ F,0,0,1,0,0,0,1 @ F,0,0,1,0,0,0,1 @ F,0,0,1,0,0,0,1 @ F,0,0,1,0,0,0,1 @ F,0,0,1,0,0,0,1 @ F,0,0,1,0,0,0,1 @ F,0,0,1,0,0,0,1 @ F,0,0,1,0,0,0,1 @ F,0,0,1,0,0,0,1 @ F,0,0,1,0,0,0,1 @ F,0,0,1,0,0,0,1 @ F,0,0,1,0,0,0,1 @ F,0,0,1,0,0,0,1 @ F,0,0,1,0,0,0,1 @ F,0,0,1,0,0,0,1 @ F,0,0,1,0,0,0,1 @ F,0,0,1,0,0,0,1 @ F,0,0,1,0,0,0,1 @ F,0,0,1,0,0,0,1 @ F,0,0,1,0,0,0,1 @ F,0,0,1,0,0,0,1 @ F,0,0,1,0,0,0,1 @ F,0,0,1,0,0,0,1 @ F,0,0,1,0,0,0,1 @ F,0,0,1,0,0,0,1 @ F,0,0,1,0,0,0,1 @ F,0,0,1,0,0,0,1 @ F,0,0,1,0,0,0,1 @ F,0,0,1,0,0,0,1 @ F,0,0,1,0,0,0,1 @ F,0,0,1,0,0,0,1 @ F,0,0,1,0,0,0,1 @ F,0,0,1,0,0,0,1 @ F,0,0,1,0,0,0,1 @ F,0,0,1,0,0,0,1 @ F,0,0,1,0,0,0,1 @ F,0,0,1,0,0,0,1 @ F,0,0,1,0,0,0,1 @ F,0,0,1,0,0,0,1 @ F,0,0,1,0,0,0,1 @ F,0,0,1,0,0,0,1 @ F,0,0,1,0,0,0,1 @ F,0,0,1,0,0,0,1 @ F,0,0,1,0,0,0,1 @ F,0,0,1,0,0,0,1 | F,0,0,1,0,0,0,1 @ F,0,0,1,0,0,0,1 @ F,0,0,1,0,0,0,1 @ F,0,0,1,0,0,0,1 @ F,0,0,1,0,0,0,1 @ F,0,0,1,0,0,0,1 @ F,0,0,1,0,0,0,1 @ F,0,0,1,0,0,0,1 @ F,0,0,1,0,0,0,1 @ F,0,0,1,0,0,0,1 @ F,0,0,1,0,0,0,1 @ F,0,0,1,0,0,0,1 @ F,0,0,1,0,0,0,1"
       radius="0"
       unit="px"
       method="auto"
       mode="F"
       chamfer_steps="1"
       flexible="false"
       use_knot_distance="true"
       apply_no_radius="true"
       apply_with_radius="true"
       only_selected="false"
       hide_knots="false" /></defs><sodipodi:namedview
     id="namedview1"
     pagecolor="#505050"
     bordercolor="#eeeeee"
     borderopacity="1"
     inkscape:showpageshadow="0"
     inkscape:pageopacity="0"
     inkscape:pagecheckerboard="0"
     inkscape:deskcolor="#505050"
     inkscape:zoom="1.5528464"
     inkscape:cx="203.81926"
     inkscape:cy="235.6962"
     inkscape:window-width="1920"
     inkscape:window-height="970"
     inkscape:window-x="0"
     inkscape:window-y="0"
     inkscape:window-maximized="1"
     inkscape:current-layer="g1"><inkscape:page
       x="0"
       y="0"
       width="512"
       height="512"
       id="page2"
       margin="0"
       bleed="0" /></sodipodi:namedview><g
     inkscape:groupmode="layer"
     inkscape:label="Image"
     id="g1"><path
       style="fill:#ffffff;fill-opacity:1;stroke-width:0.16613;stroke-linecap:round"
       d="m 209.67133,468.09705 c -2.59594,-1.05017 -6.03568,-5.5412 -6.55965,-8.56449 -0.25501,-1.47133 -1.95897,-13.70203 -3.78659,-27.17932 -1.82762,-13.4773 -3.52034,-25.47667 -3.76161,-26.66529 -0.36676,-1.80687 -2.23635,-3.06841 -11.40583,-7.69626 -6.03194,-3.04434 -14.075,-7.77217 -17.87348,-10.5063 -3.79847,-2.73413 -7.25634,-4.97114 -7.68414,-4.97114 -0.42781,0 -12.79568,4.8593 -27.48417,10.79844 -29.36872,11.87496 -31.385199,12.35796 -35.54512,8.51416 -1.359682,-1.25635 -9.4562,-14.43254 -17.992261,-29.2804 -8.536061,-14.84787 -18.30444,-31.83265 -21.707509,-37.74396 -6.819935,-11.84658 -7.702027,-14.70757 -5.717692,-18.54484 0.762157,-1.47386 7.033954,-7.03846 14.831854,-13.15945 21.380298,-16.78255 32.597739,-25.56224 32.843874,-25.70632 0.125208,-0.0733 -0.140729,-4.97391 -0.590972,-10.89028 -0.542975,-7.1349 -0.537382,-14.22978 0.01661,-21.07052 l 0.835232,-10.31351 -3.51389,-2.92911 c -1.93264,-1.61101 -7.133366,-5.73255 -11.557166,-9.15898 -18.755183,-14.52672 -29.564654,-23.19165 -31.378959,-25.15353 -1.065379,-1.15205 -2.124508,-3.53309 -2.35362,-5.29121 -0.437886,-3.36018 -0.338276,-3.54741 27.330958,-51.37427 3.171664,-5.48229 8.42341,-14.59716 11.670544,-20.25526 6.130646,-10.6826 8.792103,-13.37683 13.220167,-13.38295 1.23488,-0.002 14.62382,5.00734 29.75318,11.13122 l 27.50793,11.13434 6.79541,-4.88884 c 3.73747,-2.68887 11.93282,-7.53189 18.21188,-10.76227 8.55686,-4.40225 11.51601,-6.33073 11.8139,-7.69913 0.21859,-1.00414 2.0772,-14.113803 4.13025,-29.132593 3.87216,-28.326349 4.28534,-29.908212 8.54002,-32.69599 2.06744,-1.354637 5.65793,-1.465206 47.57967,-1.465206 49.81447,0 47.76389,-0.201268 51.18774,5.024182 1.36958,2.090241 3.8924,16.854782 7.81842,45.756466 l 1.93329,14.232051 9.19381,4.64667 c 7.7003,3.89183 18.53142,10.52112 25.80679,15.79529 1.51847,1.1008 4.01801,0.24717 29.07275,-9.92871 15.63437,-6.34983 28.57654,-11.13681 30.12326,-11.14181 4.24761,-0.0138 7.56855,3.92007 16.47167,19.51149 4.43493,7.76658 10.75576,18.79346 14.04628,24.50417 21.18746,36.77093 21.17779,36.75263 21.17779,40.06308 0,5.56524 1.96261,3.71044 -31.40378,29.67877 l -17.56825,13.67299 0.60484,3.35533 c 0.78208,4.33866 0.75552,33.41125 -0.0332,36.30205 -0.56445,2.06889 0.10671,2.77059 10.32835,10.79845 6.01262,4.72218 14.72798,11.57612 19.36748,15.23098 4.63949,3.65486 10.1657,7.95347 12.28046,9.55247 4.97982,3.76531 6.81043,7.08821 6.22704,11.30322 -0.26104,1.88595 -2.95784,7.55963 -6.47207,13.61628 -5.98001,10.30633 -9.60397,16.57657 -27.12475,46.93171 -5.0102,8.68029 -9.61133,16.57984 -10.22473,17.55455 -1.55894,2.4772 -5.19843,4.45767 -8.19182,4.45767 -2.21202,0 -19.30367,-6.50603 -48.20866,-18.3509 -7.86466,-3.22283 -8.79949,-3.43209 -10.51307,-2.35337 -1.03444,0.6512 -5.22953,3.44377 -9.32242,6.2057 -4.09289,2.76194 -11.56141,7.03203 -16.59672,9.48908 l -9.15511,4.46739 -1.38023,10.44651 c -3.43334,25.98589 -7.22554,48.46936 -8.5043,50.42101 -2.96361,4.52304 -2.34943,4.46957 -50.69198,4.41261 -24.57877,-0.029 -45.46675,-0.36741 -46.41773,-0.75212 z M 273.4837,329.01281 c 14.49265,-3.67637 25.71394,-9.98426 35.792,-20.11998 9.98425,-10.04137 15.79963,-20.38554 19.78554,-35.19371 1.52301,-5.65816 1.89931,-9.2053 1.8946,-17.85897 -0.007,-12.45556 -1.73214,-20.24477 -7.02374,-31.70865 -9.20148,-19.93438 -25.72899,-33.96537 -47.91686,-40.67891 -6.49407,-1.96495 -8.67563,-2.21017 -19.75977,-2.22114 -14.81609,-0.0147 -21.36504,1.44029 -33.47566,7.43714 -15.50844,7.67937 -26.19511,18.39037 -33.86846,33.94556 -6.0158,12.19506 -7.13866,16.73964 -7.59366,30.73405 -0.57615,17.72096 2.84896,30.11065 12.28536,44.43976 10.03619,15.23991 24.79354,25.80348 42.71683,30.57748 9.3853,2.49984 8.9702,2.44585 19.62142,2.55216 7.69373,0.0768 11.25522,-0.30992 17.5424,-1.90479 z"
       id="path2"
       inkscape:path-effect="#path-effect2"
       inkscape:original-d="m 209.67133,468.09705 c -2.59594,-1.05017 -6.03568,-5.5412 -6.55965,-8.56449 -0.25501,-1.47133 -1.95897,-13.70203 -3.78659,-27.17932 -1.82762,-13.4773 -3.52034,-25.47667 -3.76161,-26.66529 -0.36676,-1.80687 -2.23635,-3.06841 -11.40583,-7.69626 -6.03194,-3.04434 -14.075,-7.77217 -17.87348,-10.5063 -3.79847,-2.73413 -7.25634,-4.97114 -7.68414,-4.97114 -0.42781,0 -12.79568,4.8593 -27.48417,10.79844 -29.36872,11.87496 -31.385199,12.35796 -35.54512,8.51416 -1.359682,-1.25635 -9.4562,-14.43254 -17.992261,-29.2804 -8.536061,-14.84787 -18.30444,-31.83265 -21.707509,-37.74396 -6.819935,-11.84658 -7.702027,-14.70757 -5.717692,-18.54484 0.762157,-1.47386 7.033954,-7.03846 14.831854,-13.15945 21.380298,-16.78255 32.597739,-25.56224 32.843874,-25.70632 0.125208,-0.0733 -0.140729,-4.97391 -0.590972,-10.89028 -0.542975,-7.1349 -0.537382,-14.22978 0.01661,-21.07052 l 0.835232,-10.31351 -3.51389,-2.92911 c -1.93264,-1.61101 -7.133366,-5.73255 -11.557166,-9.15898 -18.755183,-14.52672 -29.564654,-23.19165 -31.378959,-25.15353 -1.065379,-1.15205 -2.124508,-3.53309 -2.35362,-5.29121 -0.437886,-3.36018 -0.338276,-3.54741 27.330958,-51.37427 3.171664,-5.48229 8.42341,-14.59716 11.670544,-20.25526 6.130646,-10.6826 8.792103,-13.37683 13.220167,-13.38295 1.23488,-0.002 14.62382,5.00734 29.75318,11.13122 l 27.50793,11.13434 6.79541,-4.88884 c 3.73747,-2.68887 11.93282,-7.53189 18.21188,-10.76227 8.55686,-4.40225 11.51601,-6.33073 11.8139,-7.69913 0.21859,-1.00414 2.0772,-14.113803 4.13025,-29.132593 3.87216,-28.326349 4.28534,-29.908212 8.54002,-32.69599 2.06744,-1.354637 5.65793,-1.465206 47.57967,-1.465206 49.81447,0 47.76389,-0.201268 51.18774,5.024182 1.36958,2.090241 3.8924,16.854782 7.81842,45.756466 l 1.93329,14.232051 9.19381,4.64667 c 7.7003,3.89183 18.53142,10.52112 25.80679,15.79529 1.51847,1.1008 4.01801,0.24717 29.07275,-9.92871 15.63437,-6.34983 28.57654,-11.13681 30.12326,-11.14181 4.24761,-0.0138 7.56855,3.92007 16.47167,19.51149 4.43493,7.76658 10.75576,18.79346 14.04628,24.50417 21.18746,36.77093 21.17779,36.75263 21.17779,40.06308 0,5.56524 1.96261,3.71044 -31.40378,29.67877 l -17.56825,13.67299 0.60484,3.35533 c 0.78208,4.33866 0.75552,33.41125 -0.0332,36.30205 -0.56445,2.06889 0.10671,2.77059 10.32835,10.79845 6.01262,4.72218 14.72798,11.57612 19.36748,15.23098 4.63949,3.65486 10.1657,7.95347 12.28046,9.55247 4.97982,3.76531 6.81043,7.08821 6.22704,11.30322 -0.26104,1.88595 -2.95784,7.55963 -6.47207,13.61628 -5.98001,10.30633 -9.60397,16.57657 -27.12475,46.93171 -5.0102,8.68029 -9.61133,16.57984 -10.22473,17.55455 -1.55894,2.4772 -5.19843,4.45767 -8.19182,4.45767 -2.21202,0 -19.30367,-6.50603 -48.20866,-18.3509 -7.86466,-3.22283 -8.79949,-3.43209 -10.51307,-2.35337 -1.03444,0.6512 -5.22953,3.44377 -9.32242,6.2057 -4.09289,2.76194 -11.56141,7.03203 -16.59672,9.48908 l -9.15511,4.46739 -1.38023,10.44651 c -3.43334,25.98589 -7.22554,48.46936 -8.5043,50.42101 -2.96361,4.52304 -2.34943,4.46957 -50.69198,4.41261 -24.57877,-0.029 -45.46675,-0.36741 -46.41773,-0.75212 z M 273.4837,329.01281 c 14.49265,-3.67637 25.71394,-9.98426 35.792,-20.11998 9.98425,-10.04137 15.79963,-20.38554 19.78554,-35.19371 1.52301,-5.65816 1.89931,-9.2053 1.8946,-17.85897 -0.007,-12.45556 -1.73214,-20.24477 -7.02374,-31.70865 -9.20148,-19.93438 -25.72899,-33.96537 -47.91686,-40.67891 -6.49407,-1.96495 -8.67563,-2.21017 -19.75977,-2.22114 -14.81609,-0.0147 -21.36504,1.44029 -33.47566,7.43714 -15.50844,7.67937 -26.19511,18.39037 -33.86846,33.94556 -6.0158,12.19506 -7.13866,16.73964 -7.59366,30.73405 -0.57615,17.72096 2.84896,30.11065 12.28536,44.43976 10.03619,15.23991 24.79354,25.80348 42.71683,30.57748 9.3853,2.49984 8.9702,2.44585 19.62142,2.55216 7.69373,0.0768 11.25522,-0.30992 17.5424,-1.90479 z" /></g></svg>
