<?xml version="1.0" encoding="UTF-8" standalone="no"?>
<!-- Created with Inkscape (http://www.inkscape.org/) -->

<svg
   width="32"
   height="32"
   viewBox="0 0 32 32"
   version="1.1"
   id="svg1"
   inkscape:version="1.4.2 (ebf0e940d0, 2025-05-08)"
   sodipodi:docname="user_icon.svg"
   xmlns:inkscape="http://www.inkscape.org/namespaces/inkscape"
   xmlns:sodipodi="http://sodipodi.sourceforge.net/DTD/sodipodi-0.dtd"
   xmlns="http://www.w3.org/2000/svg"
   xmlns:svg="http://www.w3.org/2000/svg">
  <sodipodi:namedview
     id="namedview1"
     pagecolor="#505050"
     bordercolor="#eeeeee"
     borderopacity="1"
     inkscape:showpageshadow="0"
     inkscape:pageopacity="0"
     inkscape:pagecheckerboard="0"
     inkscape:deskcolor="#505050"
     inkscape:document-units="px"
     inkscape:zoom="17.467164"
     inkscape:cx="20.180723"
     inkscape:cy="9.6180468"
     inkscape:window-width="1920"
     inkscape:window-height="970"
     inkscape:window-x="0"
     inkscape:window-y="0"
     inkscape:window-maximized="1"
     inkscape:current-layer="layer1" />
  <defs
     id="defs1">
    <inkscape:path-effect
       effect="fillet_chamfer"
       id="path-effect18"
       is_visible="true"
       lpeversion="1"
       nodesatellites_param="F,0,0,1,0,0,0,1 @ F,0,0,1,0,0.97710021,0,1 @ F,0,0,1,0,0,0,1"
       radius="0"
       unit="px"
       method="auto"
       mode="F"
       chamfer_steps="1"
       flexible="false"
       use_knot_distance="true"
       apply_no_radius="true"
       apply_with_radius="true"
       only_selected="false"
       hide_knots="false" />
    <filter
       style="color-interpolation-filters:sRGB;"
       inkscape:label="Drop Shadow"
       id="filter95"
       x="-0.067578543"
       y="-0.1363387"
       width="1.2152106"
       height="1.2736347">
      <feFlood
         result="flood"
         in="SourceGraphic"
         flood-opacity="1.000000"
         flood-color="rgb(213,213,213)"
         id="feFlood94" />
      <feGaussianBlur
         result="blur"
         in="SourceGraphic"
         stdDeviation="0.000000"
         id="feGaussianBlur94" />
      <feOffset
         result="offset"
         in="blur"
         dx="0.600000"
         dy="0.000000"
         id="feOffset94" />
      <feComposite
         result="comp1"
         operator="in"
         in="flood"
         in2="offset"
         id="feComposite94" />
      <feComposite
         result="fbSourceGraphic"
         operator="over"
         in="SourceGraphic"
         in2="comp1"
         id="feComposite95" />
      <feColorMatrix
         result="fbSourceGraphicAlpha"
         in="fbSourceGraphic"
         values="0 0 0 -1 0 0 0 0 -1 0 0 0 0 -1 0 0 0 0 1 0"
         id="feColorMatrix95" />
      <feFlood
         id="feFlood95"
         result="flood"
         in="fbSourceGraphic"
         flood-opacity="1.000000"
         flood-color="rgb(213,213,213)" />
      <feGaussianBlur
         id="feGaussianBlur95"
         result="blur"
         in="fbSourceGraphic"
         stdDeviation="0.000000" />
      <feOffset
         id="feOffset95"
         result="offset"
         in="blur"
         dx="0.600000"
         dy="0.000000" />
      <feComposite
         id="feComposite96"
         result="comp1"
         operator="in"
         in="flood"
         in2="offset" />
      <feComposite
         id="feComposite97"
         result="comp2"
         operator="over"
         in="fbSourceGraphic"
         in2="comp1" />
    </filter>
    <filter
       style="color-interpolation-filters:sRGB;"
       inkscape:label="Drop Shadow"
       id="filter22"
       x="-0.0024568426"
       y="-0.0015555458"
       width="1.0257522"
       height="1.0163024">
      <feFlood
         result="flood"
         in="SourceGraphic"
         flood-opacity="1.000000"
         flood-color="rgb(213,213,213)"
         id="feFlood21" />
      <feGaussianBlur
         result="blur"
         in="SourceGraphic"
         stdDeviation="0.000000"
         id="feGaussianBlur21" />
      <feOffset
         result="offset"
         in="blur"
         dx="0.500000"
         dy="0.500000"
         id="feOffset21" />
      <feComposite
         result="comp1"
         operator="in"
         in="flood"
         in2="offset"
         id="feComposite21" />
      <feComposite
         result="comp2"
         operator="over"
         in="SourceGraphic"
         in2="comp1"
         id="feComposite22" />
    </filter>
  </defs>
  <g
     inkscape:label="Layer 1"
     inkscape:groupmode="layer"
     id="layer1">
    <circle
       style="fill:none;stroke:#ffffff;stroke-width:2.026;stroke-linecap:round"
       id="path1"
       cx="16"
       cy="11.362727"
       r="5.6677775" />
    <ellipse
       style="fill:none;stroke:#ffffff;stroke-width:3.78059;stroke-linecap:round"
       id="path2"
       cx="16"
       cy="31.2572"
       rx="10.13831"
       ry="9.4591188" />
    <path
       style="fill:#ffffff;stroke:#ffffff;stroke-width:0.115989;stroke-linecap:round;fill-opacity:1"
       d="M 14.692002,38.700687 C 12.804729,38.393446 11.231585,37.605048 9.9597453,36.329068 8.8669022,35.232667 8.1811524,33.96756 7.8940463,32.518158 7.775954,31.921991 7.7919158,30.464951 7.9232099,29.85602 8.558393,26.910092 10.993636,24.602264 14.211213,23.897013 c 0.684087,-0.149943 2.161204,-0.208251 2.877995,-0.113607 3.101422,0.409508 5.673789,2.352825 6.689756,5.053835 0.312089,0.82971 0.404096,1.380138 0.404748,2.421411 5.41e-4,0.865026 -0.01635,1.040815 -0.151861,1.580797 -0.733618,2.923233 -3.094593,5.096597 -6.279855,5.780838 -0.730284,0.156875 -2.331761,0.198953 -3.059994,0.0804 z"
       id="path3" />
    <path
       style="fill:#ffffff;fill-opacity:1;stroke:#ffffff;stroke-width:0.115989;stroke-linecap:round"
       d="M 14.598821,42.506097 C 12.273169,42.224884 10.090225,41.328901 8.2726652,39.909545 7.8015778,39.541667 6.8742598,38.619043 6.4539732,38.10006 5.2839278,36.655251 4.4690391,34.864502 4.1483706,33.033411 4.0210286,32.306258 3.9789234,30.92921 4.0608452,30.170897 4.3381731,27.603795 5.4641459,25.298415 7.3500616,23.436371 9.113137,21.695613 11.317187,20.576166 13.890456,20.114475 c 0.635167,-0.11396 0.926824,-0.132245 2.110997,-0.132348 1.175765,-1.02e-4 1.477257,0.01849 2.089635,0.128845 2.60477,0.469408 4.777024,1.570975 6.546388,3.319727 2.101545,2.077062 3.22152,4.567871 3.339589,7.427201 0.10116,2.449823 -0.6573,4.870467 -2.162346,6.901181 -0.433007,0.584244 -1.410031,1.59856 -1.998603,2.074888 -1.635208,1.323364 -3.641204,2.213316 -5.840327,2.591035 -0.638499,0.109668 -2.726067,0.159798 -3.376968,0.08109 z m 1.848938,-3.704239 c -0.226846,-0.01084 -0.613286,-0.0109 -0.858754,-1.46e-4 -0.245468,0.01076 -0.05987,0.01962 0.412448,0.0197 0.472315,8e-5 0.673153,-0.0087 0.446306,-0.01956 z m -1.547285,-0.05235 c -0.03876,-0.01568 -0.116048,-0.01664 -0.17175,-0.0021 -0.0557,0.01451 -0.02399,0.02735 0.07047,0.02851 0.09446,0.0012 0.140038,-0.01071 0.101277,-0.02639 z m 2.318215,-0.0018 c -0.05474,-0.01433 -0.157787,-0.01485 -0.229001,-0.0012 -0.07122,0.01369 -0.02643,0.02542 0.09952,0.02605 0.125951,6.36e-4 0.184217,-0.01057 0.129481,-0.0249 z m -2.692623,-0.0525 c -0.01903,-0.01902 -0.0684,-0.02106 -0.10973,-0.0045 -0.04567,0.01827 -0.0321,0.03184 0.03459,0.03459 0.06035,0.0025 0.09416,-0.01105 0.07514,-0.03007 z m 3.121332,-0.0033 c -0.03936,-0.01588 -0.103766,-0.01588 -0.143125,0 -0.03936,0.01588 -0.0072,0.02888 0.07156,0.02888 0.07872,0 0.110923,-0.01299 0.07156,-0.02888 z m -3.407584,-0.05392 c -0.01902,-0.01902 -0.0684,-0.02106 -0.10973,-0.0045 -0.04567,0.01828 -0.0321,0.03184 0.03459,0.03459 0.06035,0.0025 0.09417,-0.01104 0.07514,-0.03007 z m -0.286251,-0.05725 c -0.01902,-0.01902 -0.0684,-0.02106 -0.10973,-0.0045 -0.04567,0.01828 -0.0321,0.03184 0.03459,0.03459 0.06035,0.0025 0.09417,-0.01105 0.07514,-0.03007 z m 4.23652,0 c -0.01902,-0.01902 -0.0684,-0.02106 -0.109729,-0.0045 -0.04567,0.01828 -0.03211,0.03184 0.03459,0.03459 0.06035,0.0025 0.09417,-0.01105 0.07514,-0.03007 z m -4.637272,-0.114501 c -0.01902,-0.01902 -0.0684,-0.02106 -0.10973,-0.0045 -0.04567,0.01828 -0.0321,0.03184 0.03459,0.03459 0.06035,0.0025 0.09417,-0.01104 0.07514,-0.03007 z m 5.401316,-0.109912 c 1.767024,-0.600663 3.379674,-1.895796 4.311269,-3.462419 0.270813,-0.455416 0.6989,-1.416508 0.651879,-1.463529 -0.01275,-0.01275 -0.09494,0.163224 -0.182634,0.391059 -0.36564,0.949922 -0.957532,1.816316 -1.798028,2.631898 -0.861945,0.836394 -1.903996,1.475997 -3.051816,1.873181 -0.263358,0.09113 -0.451142,0.167631 -0.417297,0.170001 0.03384,0.0024 0.252826,-0.06072 0.486627,-0.140191 z m -6.015564,-0.0845 c -0.04723,-0.03052 -0.111638,-0.0555 -0.143126,-0.0555 -0.03149,0 -0.01861,0.02497 0.02862,0.0555 0.04723,0.03052 0.111638,0.0555 0.143126,0.0555 0.03149,0 0.01861,-0.02497 -0.02862,-0.0555 z M 12.652312,38.15731 c -0.04723,-0.03052 -0.111639,-0.0555 -0.143126,-0.0555 -0.03149,0 -0.01861,0.02497 0.02862,0.0555 0.04723,0.03052 0.111638,0.0555 0.143126,0.0555 0.03149,0 0.01861,-0.02497 -0.02862,-0.0555 z M 11.977394,37.843364 C 10.567279,37.086269 9.4194432,35.980156 8.6519762,34.638821 8.4905866,34.356753 8.3585406,34.101274 8.3585406,34.071089 c 0,-0.03019 -0.014613,-0.04027 -0.032474,-0.02241 -0.04606,0.04606 0.2241877,0.565956 0.5733459,1.10299 0.7413651,1.14028 1.6891185,1.99493 3.0086455,2.713088 0.236157,0.12853 0.45514,0.233623 0.486627,0.23354 0.03149,-8.4e-5 -0.156293,-0.114804 -0.417291,-0.254935 z M 8.2510288,33.824896 c -0.067489,-0.116059 -0.083787,-0.07891 -0.028541,0.06506 0.019634,0.05116 0.047758,0.08097 0.062498,0.06623 0.01474,-0.01474 -5.404e-4,-0.07382 -0.033957,-0.131282 z m 15.7860402,-0.76286 c 0,-0.05413 -0.01819,-0.04355 -0.0492,0.02862 -0.02706,0.06298 -0.0492,0.153144 -0.0492,0.200376 0,0.05413 0.01819,0.04355 0.0492,-0.02863 0.02706,-0.06298 0.0492,-0.153145 0.0492,-0.200376 z m 0.04716,-0.239736 c -0.01827,-0.04567 -0.03184,-0.03211 -0.03459,0.03459 -0.0025,0.06035 0.01104,0.09416 0.03007,0.07514 0.01902,-0.01902 0.02106,-0.0684 0.0045,-0.10973 z M 7.8823966,32.593299 c -0.018276,-0.04567 -0.031842,-0.03211 -0.034589,0.03459 -0.00249,0.06035 0.011045,0.09417 0.030069,0.07514 0.019024,-0.01902 0.021058,-0.0684 0.00452,-0.10973 z m -0.056685,-0.431866 c -0.014515,-0.0557 -0.027346,-0.02399 -0.028513,0.07047 -0.00117,0.09446 0.01071,0.140037 0.026392,0.101277 0.015682,-0.03876 0.016637,-0.116048 0.00212,-0.171751 z m 16.3730144,0.08836 c -0.01828,-0.04567 -0.03184,-0.0321 -0.03459,0.03459 -0.0025,0.06035 0.01105,0.09417 0.03007,0.07514 0.01902,-0.01902 0.02106,-0.0684 0.0045,-0.10973 z M 7.7712337,30.931706 c -0.011211,-0.198032 -0.020477,-0.05091 -0.02059,0.326946 -1.132e-4,0.377852 0.00906,0.539878 0.020384,0.360058 0.011325,-0.17982 0.011417,-0.488972 2.06e-4,-0.687004 z m 16.4880803,0 c -0.01121,-0.198032 -0.02048,-0.05091 -0.02059,0.326946 -1.13e-4,0.377852 0.0091,0.539878 0.02038,0.360058 0.01132,-0.17982 0.01142,-0.488972 2.06e-4,-0.687004 z M 7.825502,30.213834 c -0.0144,-0.0551 -0.026182,-0.01002 -0.026182,0.100188 0,0.110207 0.011782,0.155292 0.026182,0.100188 0.0144,-0.0551 0.0144,-0.145272 0,-0.200376 z m 16.37358,0 c -0.0144,-0.0551 -0.02618,-0.01002 -0.02618,0.100188 0,0.110207 0.01178,0.155292 0.02618,0.100188 0.0144,-0.0551 0.0144,-0.145272 0,-0.200376 z M 7.8823966,29.845286 c -0.018276,-0.04567 -0.031842,-0.03211 -0.034589,0.03459 -0.00249,0.06035 0.011045,0.09416 0.030069,0.07514 0.019024,-0.01902 0.021058,-0.0684 0.00452,-0.10973 z M 8.299537,28.567889 c 0,-0.03149 -0.024974,-0.01861 -0.055497,0.02862 -0.030523,0.04723 -0.055497,0.111638 -0.055497,0.143126 0,0.03149 0.024974,0.01861 0.055497,-0.02863 0.030523,-0.04723 0.055497,-0.111638 0.055497,-0.143126 z m 15.466317,0.04723 c -0.06749,-0.116058 -0.08379,-0.07891 -0.02854,0.06506 0.01963,0.05117 0.04776,0.08097 0.0625,0.06623 0.01474,-0.01474 -5.41e-4,-0.07382 -0.03396,-0.131283 z M 9.1406661,27.100048 c 0.6498757,-0.902598 1.7721039,-1.86572 2.8058819,-2.408073 0.257328,-0.135003 0.458415,-0.254912 0.446862,-0.266465 -0.04163,-0.04163 -1.034431,0.519878 -1.483603,0.839096 -0.9451585,0.671703 -1.9285124,1.809811 -2.4411266,2.825294 -0.2629449,0.520891 -0.1937492,0.473403 0.095622,-0.06562 0.1436045,-0.2675 0.402968,-0.683403 0.5763634,-0.924228 z M 23.532695,28.08681 c -0.162379,-0.318288 -0.204563,-0.299324 -0.04854,0.02182 0.06851,0.141003 0.134374,0.24655 0.146376,0.234549 0.012,-0.012 -0.03203,-0.127369 -0.09784,-0.25637 z M 23.243379,27.580322 C 22.773568,26.780098 21.90146,25.841021 21.094207,25.266115 20.645412,24.946493 19.7202,24.419157 19.60822,24.419157 c -0.03149,0 0.151025,0.111837 0.405582,0.248526 1.271058,0.682518 2.303343,1.59881 3.017269,2.678231 0.31285,0.473014 0.425261,0.597125 0.212308,0.234408 z M 12.795437,24.298625 c 0.125951,-0.06057 0.164595,-0.09409 0.08588,-0.07449 -0.162104,0.04036 -0.459698,0.189563 -0.372127,0.186575 0.03149,-0.0011 0.160301,-0.05151 0.286251,-0.112081 z m 6.612407,0.03759 c -0.07872,-0.04205 -0.207532,-0.09248 -0.286251,-0.112081 -0.07872,-0.0196 -0.04008,0.01393 0.08587,0.07449 0.259082,0.124593 0.419663,0.154714 0.200376,0.03759 z m -0.887379,-0.31972 c -0.06298,-0.02706 -0.153144,-0.0492 -0.200376,-0.0492 -0.05413,0 -0.04355,0.01819 0.02863,0.0492 0.06297,0.02706 0.153145,0.0492 0.200376,0.0492 0.05413,0 0.04355,-0.01819 -0.02862,-0.0492 z m -4.795903,-0.03459 c -0.01903,-0.01902 -0.0684,-0.02106 -0.10973,-0.0045 -0.04567,0.01828 -0.0321,0.03184 0.03459,0.03459 0.06035,0.0025 0.09416,-0.01104 0.07514,-0.03007 z m 0.229001,-0.05725 c -0.01902,-0.01902 -0.0684,-0.02106 -0.10973,-0.0045 -0.04567,0.01828 -0.0321,0.03184 0.03459,0.03459 0.06035,0.0025 0.09417,-0.01104 0.07514,-0.03007 z m 4.23652,0 c -0.01902,-0.01902 -0.0684,-0.02106 -0.109729,-0.0045 -0.04567,0.01828 -0.03211,0.03184 0.03459,0.03459 0.06035,0.0025 0.09417,-0.01104 0.07514,-0.03007 z m -0.229001,-0.05725 c -0.01902,-0.01902 -0.0684,-0.02106 -0.10973,-0.0045 -0.04567,0.01827 -0.0321,0.03184 0.03459,0.03459 0.06035,0.0025 0.09417,-0.01104 0.07514,-0.03007 z m -3.492267,-0.05725 c -0.01902,-0.01902 -0.0684,-0.02106 -0.10973,-0.0045 -0.04567,0.01828 -0.0321,0.03184 0.03459,0.03459 0.06035,0.0025 0.09416,-0.01104 0.07514,-0.03007 z m 3.178583,-0.0033 c -0.03936,-0.01588 -0.103766,-0.01588 -0.143125,0 -0.03936,0.01588 -0.0072,0.02888 0.07156,0.02888 0.07872,0 0.110923,-0.01299 0.07156,-0.02888 z m -2.719388,-0.0588 c -0.0551,-0.0144 -0.145273,-0.0144 -0.200376,0 -0.0551,0.0144 -0.01002,0.02618 0.100188,0.02618 0.110207,0 0.155291,-0.01178 0.100188,-0.02618 z m 2.375887,0.0015 c -0.03936,-0.01588 -0.103767,-0.01588 -0.143126,0 -0.03936,0.01588 -0.0072,0.02888 0.07156,0.02888 0.07872,0 0.110922,-0.01299 0.07156,-0.02888 z m -0.827411,-0.06184 c -0.242534,-0.01071 -0.654736,-0.01076 -0.916005,-1.32e-4 -0.261268,0.01063 -0.06283,0.01939 0.440972,0.01946 0.503802,7.2e-5 0.717567,-0.0086 0.475033,-0.01933 z"
       id="path4" />
    <path
       style="fill:#ffffff;fill-opacity:1;stroke:#ffffff;stroke-width:0.115989;stroke-linecap:round"
       d="M 15.361108,15.947605 C 13.594787,15.66651 12.185215,14.479853 11.6168,12.795437 c -0.156869,-0.46486 -0.187325,-0.647848 -0.209622,-1.259506 -0.02892,-0.793328 0.0357,-1.18081 0.318273,-1.9085338 0.225076,-0.5796443 0.528198,-1.0206947 1.068781,-1.555108 0.912079,-0.9016692 1.914747,-1.3117634 3.207221,-1.3117634 2.089168,0 3.79926,1.287106 4.445827,3.3461662 0.114941,0.366044 0.134195,0.546462 0.134195,1.257488 0,0.710303 -0.01936,0.892108 -0.134139,1.259506 -0.608864,1.948961 -2.264342,3.255945 -4.238189,3.346009 -0.303158,0.01383 -0.684775,0.0039 -0.848039,-0.02209 z"
       id="path6" />
    <path
       style="fill:#ffffff;fill-opacity:1;stroke:#ffffff;stroke-width:0.115989;stroke-linecap:round"
       d="M 14.862005,17.913233 C 13.462856,17.660566 12.282945,17.027469 11.24968,15.974992 10.394941,15.104361 9.8586567,14.156975 9.5577608,12.98609 8.7956713,10.02055 10.227295,6.8607525 12.96825,5.4586548 c 4.000786,-2.0465465 8.825099,0.3763464 9.592844,4.8177702 0.09534,0.551534 0.09518,1.625378 -3.13e-4,2.175511 -0.419816,2.418455 -2.1444,4.433787 -4.457205,5.208648 -1.006434,0.337187 -2.240724,0.433388 -3.241571,0.252649 z m 1.324235,-1.896311 c -0.118782,-0.01239 -0.29912,-0.01219 -0.400752,4.62e-4 -0.101633,0.01265 -0.0044,0.02279 0.215965,0.02253 0.220413,-2.54e-4 0.303567,-0.0106 0.184787,-0.02299 z m -0.858671,-0.05006 c -0.01902,-0.01902 -0.0684,-0.02106 -0.109729,-0.0045 -0.04567,0.01828 -0.03211,0.03184 0.03459,0.03459 0.06035,0.0025 0.09417,-0.01105 0.07514,-0.03007 z m 1.462165,-0.003 c -0.03876,-0.01568 -0.116048,-0.01664 -0.171751,-0.0021 -0.0557,0.01451 -0.02399,0.02735 0.07047,0.02851 0.09446,0.0012 0.140038,-0.01071 0.101278,-0.02639 z m -1.748416,-0.05429 c -0.01902,-0.01902 -0.0684,-0.02106 -0.10973,-0.0045 -0.04567,0.01828 -0.0321,0.03184 0.03459,0.03459 0.06035,0.0025 0.09417,-0.01105 0.07514,-0.03007 z m 2.371048,-0.07965 c 0.200115,-0.06283 0.402489,-0.14255 0.449721,-0.177151 0.06928,-0.05075 0.06375,-0.05471 -0.02862,-0.02046 -0.06298,0.02335 -0.307721,0.101685 -0.543878,0.174083 -0.236157,0.0724 -0.387006,0.133014 -0.33522,0.134701 0.05179,0.0017 0.257888,-0.04834 0.458002,-0.111174 z m -2.92603,-0.08636 c -0.20356,-0.07556 -0.379274,-0.128224 -0.390474,-0.117023 -0.0286,0.0286 0.570258,0.254411 0.67471,0.254411 0.04723,0 -0.08067,-0.06182 -0.284236,-0.137388 z m -0.460018,-0.165397 c 0,-0.01238 -0.03998,-0.03784 -0.08885,-0.05659 -0.05095,-0.01955 -0.07393,-0.01 -0.05387,0.0225 0.03362,0.0544 0.14272,0.08046 0.14272,0.0341 z m 4.451063,-0.241466 c 0.519268,-0.331777 0.810547,-0.591398 1.169961,-1.042806 0.33118,-0.415947 0.750718,-1.196979 0.820304,-1.527117 0.01991,-0.09446 -0.04989,0.03484 -0.155117,0.287349 -0.105224,0.252505 -0.313713,0.643209 -0.463307,0.868231 -0.341985,0.514418 -1.060456,1.194886 -1.520531,1.440104 -0.193657,0.103218 -0.352104,0.201796 -0.352104,0.219062 0,0.05206 0.153835,-0.02314 0.500794,-0.244823 z m -4.680064,0.12628 c 0,-0.01275 -0.117696,-0.09216 -0.261547,-0.176462 -0.329562,-0.193135 -0.991503,-0.814608 -1.266123,-1.188715 -0.115236,-0.156982 -0.294675,-0.443395 -0.398754,-0.636473 -0.10408,-0.193078 -0.189821,-0.329056 -0.190536,-0.302173 -7.15e-4,0.02688 0.09068,0.223911 0.203093,0.437838 0.357018,0.679408 1.005738,1.360268 1.684866,1.768341 0.211646,0.127173 0.229001,0.134573 0.229001,0.09764 z m -2.199874,-2.643951 c -0.04514,-0.123202 -0.08388,-0.195644 -0.0861,-0.160983 -0.0056,0.08759 0.118704,0.434454 0.145939,0.407219 0.01223,-0.01223 -0.0147,-0.123035 -0.05984,-0.246236 z m -0.166722,-0.667692 c -0.01588,-0.03936 -0.02888,-0.0072 -0.02888,0.07156 0,0.07872 0.01299,0.110923 0.02888,0.07156 0.01588,-0.03936 0.01588,-0.103766 0,-0.143125 z m 9.161237,0.06083 c -0.01828,-0.04567 -0.03184,-0.0321 -0.03459,0.03459 -0.0025,0.06035 0.01105,0.09417 0.03007,0.07514 0.01902,-0.01902 0.02106,-0.0684 0.0045,-0.10973 z m -9.214015,-1.205834 c -0.01118,-0.196798 -0.02033,-0.03578 -0.02033,0.357814 0,0.393596 0.0091,0.554612 0.02033,0.357814 0.01118,-0.196797 0.01118,-0.51883 0,-0.715628 z m 9.274465,0.02862 c -0.01136,-0.181054 -0.02066,-0.03292 -0.02066,0.329189 0,0.362108 0.0093,0.510243 0.02066,0.329189 0.01136,-0.181054 0.01136,-0.477324 0,-0.658378 z m -9.220494,-0.59755 c -0.01828,-0.04567 -0.03184,-0.0321 -0.03459,0.03459 -0.0025,0.06035 0.01104,0.09417 0.03007,0.07514 0.01902,-0.01902 0.02106,-0.0684 0.0045,-0.10973 z m 9.160044,0 c -0.01828,-0.04567 -0.03184,-0.0321 -0.03459,0.03459 -0.0025,0.06035 0.01105,0.09417 0.03007,0.07514 0.01902,-0.01902 0.02106,-0.0684 0.0045,-0.10973 z M 11.937864,9.1367272 c 0.246554,-0.4691941 0.957929,-1.2570546 1.426254,-1.5796022 0.343295,-0.2364368 0.438181,-0.3445904 0.132635,-0.1511817 -0.675318,0.4274722 -1.260981,1.054915 -1.61692,1.7322695 -0.204943,0.3900059 -0.433721,0.9836992 -0.425516,1.1042372 0.0023,0.03443 0.06454,-0.109767 0.138217,-0.3204379 0.07367,-0.2106709 0.229073,-0.5640491 0.34533,-0.7852849 z m 8.530868,0.8114385 C 20.384824,9.6138549 20.020536,8.9185684 19.720248,8.5195996 19.41811,8.1181729 18.868938,7.6139294 18.49693,7.3963618 c -0.282635,-0.165298 -0.2044,-0.074242 0.123723,0.1439982 0.69707,0.4636327 1.387738,1.3393425 1.687751,2.1399275 0.162293,0.4330785 0.230315,0.5467315 0.160328,0.2678782 z M 14.116795,7.0845525 c -0.02619,-0.02619 -0.376728,0.1476025 -0.376728,0.1867768 0,0.014426 0.08985,-0.016616 0.199657,-0.068981 0.109811,-0.052365 0.189493,-0.1053735 0.177071,-0.1177958 z m 4.063539,0.1271618 c -0.06112,-0.04623 -0.13841,-0.083142 -0.171751,-0.082026 -0.03334,0.00112 0.0038,0.038847 0.0825,0.083847 0.185448,0.1060117 0.230595,0.1050907 0.08925,-0.00182 z M 17.655389,6.98296 C 17.557449,6.94 17.402873,6.890383 17.311887,6.8727001 c -0.09099,-0.017683 -0.03662,0.017571 0.120823,0.078342 0.326654,0.1260886 0.491109,0.1496608 0.222679,0.031918 z M 14.812317,6.8640698 c -0.01902,-0.019024 -0.0684,-0.021058 -0.10973,-0.00452 -0.04567,0.018276 -0.0321,0.031842 0.03459,0.034589 0.06035,0.00249 0.09417,-0.011045 0.07514,-0.030069 z m 0.229001,-0.05725 c -0.01902,-0.019024 -0.0684,-0.021058 -0.10973,-0.00452 -0.04567,0.018276 -0.0321,0.031842 0.03459,0.034589 0.06035,0.00249 0.09417,-0.011045 0.07514,-0.030069 z m 2.033578,-0.00333 c -0.03936,-0.015882 -0.103767,-0.015882 -0.143126,0 -0.03936,0.015882 -0.0072,0.028876 0.07156,0.028876 0.07872,0 0.110922,-0.012994 0.07156,-0.028876 z m -1.659169,-0.056887 c -0.03876,-0.015682 -0.116048,-0.016637 -0.171751,-0.00212 -0.0557,0.014515 -0.02399,0.027346 0.07047,0.028513 0.09446,0.00117 0.140038,-0.01071 0.101278,-0.026392 z m 1.344292,-0.00191 c -0.0551,-0.0144 -0.145273,-0.0144 -0.200376,0 -0.0551,0.0144 -0.01002,0.026182 0.100188,0.026182 0.110207,0 0.155291,-0.011782 0.100188,-0.026182 z m -0.513739,-0.0594 c -0.117247,-0.012302 -0.323348,-0.012472 -0.458003,-3.781e-4 -0.134655,0.012094 -0.03873,0.022159 0.213176,0.022367 0.251901,2.08e-4 0.362073,-0.00969 0.244827,-0.021989 z"
       id="path7" />
    <g
       id="g10"
       style="filter:url(#filter22)">
      <path
         d="m 16.001953,19.951172 c -1.355032,0 -1.999124,0.07747 -3.175781,0.378906 -1.584117,0.40582 -2.9668476,1.068087 -4.2871095,2.052734 -2.4691669,1.841499 -4.1088931,4.605053 -4.4765625,7.546875 -0.1047008,0.83774 -0.044796,2.65957 0.1113281,3.390625 0.8443399,3.95366 3.5448212,6.994947 7.3691409,8.447266 0.264142,-0.267141 0.531365,-0.530465 0.804687,-0.789062 0.193418,-0.171705 0.369681,-0.364598 0.587891,-0.50586 0.127334,-0.08244 0.152394,-0.08627 0.292969,-0.148437 0.150206,-0.06254 0.309878,-0.09695 0.470703,-0.117188 0.02446,-0.0031 0.04779,-0.01062 0.07226,-0.0078 0.06058,0.007 0.119968,0.02473 0.179688,0.03711 0.04462,0.03796 0.09014,0.07728 0.134766,0.115234 0.06919,0.05886 0.09188,0.100409 0.08398,0.128907 -3.95e-4,0.0011 -0.0015,0.0048 -0.002,0.0059 -0.05661,0.09788 -0.540421,0.02793 -0.625,0.08984 -0.0019,0.0017 -0.0065,0.006 -0.0078,0.0078 v 0.002 c 0,0 0,0.002 0,0.002 0,0 -0.002,0 -0.002,0 0,0 0,0.002 0,0.002 v 0.002 0.002 c 0.0011,0.02302 0.02943,0.06078 0.09961,0.107422 l 0.09375,0.0625 c 0.03522,0.0019 0.07107,-0.0019 0.105468,0.0059 h 0.002 0.002 v 0.002 h -0.002 c -0.0087,0.0017 -0.04285,0.0023 -0.05664,0.0039 -0.110205,0.01317 -0.221134,0.03342 -0.324219,0.07617 -0.101382,0.04114 -0.2024,0.08776 -0.289062,0.15625 -0.149331,0.118015 -0.275607,0.263257 -0.421875,0.384766 -0.203419,0.192337 -0.403229,0.387797 -0.601563,0.585938 0.600632,0.196384 1.226411,0.356263 1.875,0.474609 0.536045,0.09783 0.804831,0.108722 2.158203,0.08789 1.390232,-0.02139 1.615444,-0.03987 2.251953,-0.173829 2.489155,-0.523846 4.621267,-1.655267 6.302735,-3.345703 1.622078,-1.630728 2.600714,-3.42972 3.080078,-5.664062 0.144846,-0.675086 0.155397,-0.818795 0.154297,-2.09961 -10e-4,-1.279469 -0.01115,-1.424141 -0.158204,-2.117187 -0.409202,-1.928544 -1.194608,-3.515126 -2.484375,-5.017578 -1.605501,-1.870256 -3.716015,-3.171739 -6.15625,-3.796875 -1.163871,-0.298158 -1.810453,-0.375 -3.162109,-0.375 z"
         style="fill:#ffffff;stroke:#ffffff;stroke-width:0.115989;stroke-linecap:round"
         id="path10" />
      <path
         style="fill:#ffffff;fill-opacity:1;stroke:#ffffff;stroke-width:0.115989;stroke-linecap:round"
         d="m 14.970948,17.964829 c -0.644416,-0.08715 -1.742594,-0.488518 -2.347262,-0.857883 -0.78601,-0.48014 -1.655753,-1.298274 -2.143118,-2.015951 -1.800942,-2.652004 -1.44145,-6.2075789 0.857777,-8.4838897 0.914222,-0.9051106 2.146228,-1.548504 3.44289,-1.7979882 0.673142,-0.1295159 1.874435,-0.1192099 2.536974,0.021765 2.394225,0.5094422 4.295694,2.2123805 5.025636,4.5009134 0.270186,0.8470955 0.298252,1.0444155 0.29315,2.0610095 -0.0043,0.859083 -0.02247,1.03916 -0.154756,1.535062 -0.69976,2.623134 -2.703049,4.509127 -5.299167,4.988893 -0.443981,0.08205 -1.750895,0.110447 -2.212124,0.04807 z"
         id="path8" />
    </g>
  </g>
</svg>
